<svg width="216" height="44" viewBox="0 0 216 44" fill="none" xmlns="http://www.w3.org/2000/svg">
<path d="M22.216 32.182C20.8813 32.182 19.6853 31.9653 18.628 31.532C17.5707 31.0987 16.7213 30.4573 16.08 29.608C15.456 28.7587 15.1267 27.736 15.092 26.54H19.824C19.8933 27.216 20.1273 27.736 20.526 28.1C20.9247 28.4467 21.4447 28.62 22.086 28.62C22.7447 28.62 23.2647 28.4727 23.646 28.178C24.0273 27.866 24.218 27.4413 24.218 26.904C24.218 26.4533 24.062 26.0807 23.75 25.786C23.4553 25.4913 23.0827 25.2487 22.632 25.058C22.1987 24.8673 21.5747 24.6507 20.76 24.408C19.5813 24.044 18.6193 23.68 17.874 23.316C17.1287 22.952 16.4873 22.4147 15.95 21.704C15.4127 20.9933 15.144 20.066 15.144 18.922C15.144 17.2233 15.7593 15.8973 16.99 14.944C18.2207 13.9733 19.824 13.488 21.8 13.488C23.8107 13.488 25.4313 13.9733 26.662 14.944C27.8927 15.8973 28.5513 17.232 28.638 18.948H23.828C23.7933 18.3587 23.5767 17.8993 23.178 17.57C22.7793 17.2233 22.268 17.05 21.644 17.05C21.1067 17.05 20.6733 17.1973 20.344 17.492C20.0147 17.7693 19.85 18.1767 19.85 18.714C19.85 19.3033 20.1273 19.7627 20.682 20.092C21.2367 20.4213 22.1033 20.7767 23.282 21.158C24.4607 21.5567 25.414 21.938 26.142 22.302C26.8873 22.666 27.5287 23.1947 28.066 23.888C28.6033 24.5813 28.872 25.474 28.872 26.566C28.872 27.606 28.6033 28.5507 28.066 29.4C27.546 30.2493 26.7833 30.9253 25.778 31.428C24.7727 31.9307 23.5853 32.182 22.216 32.182ZM36.0541 13.748V32H31.6081V13.748H36.0541ZM49.8581 32L43.7221 23.94V32H39.2761V13.748H43.7221V21.756L49.8061 13.748H55.0321L47.9601 22.692L55.2921 32H49.8581ZM78.075 13.748V32H73.629V21.054L69.547 32H65.959L61.851 21.028V32H57.405V13.748H62.657L67.779 26.384L72.849 13.748H78.075ZM92.6342 28.776H85.8222L84.7302 32H80.0762L86.6802 13.748H91.8282L98.4322 32H93.7262L92.6342 28.776ZM91.4902 25.344L89.2282 18.662L86.9922 25.344H91.4902ZM107.046 32.182C105.711 32.182 104.515 31.9653 103.458 31.532C102.401 31.0987 101.551 30.4573 100.91 29.608C100.286 28.7587 99.9567 27.736 99.9221 26.54H104.654C104.723 27.216 104.957 27.736 105.356 28.1C105.755 28.4467 106.275 28.62 106.916 28.62C107.575 28.62 108.095 28.4727 108.476 28.178C108.857 27.866 109.048 27.4413 109.048 26.904C109.048 26.4533 108.892 26.0807 108.58 25.786C108.285 25.4913 107.913 25.2487 107.462 25.058C107.029 24.8673 106.405 24.6507 105.59 24.408C104.411 24.044 103.449 23.68 102.704 23.316C101.959 22.952 101.317 22.4147 100.78 21.704C100.243 20.9933 99.9741 20.066 99.9741 18.922C99.9741 17.2233 100.589 15.8973 101.82 14.944C103.051 13.9733 104.654 13.488 106.63 13.488C108.641 13.488 110.261 13.9733 111.492 14.944C112.723 15.8973 113.381 17.232 113.468 18.948H108.658C108.623 18.3587 108.407 17.8993 108.008 17.57C107.609 17.2233 107.098 17.05 106.474 17.05C105.937 17.05 105.503 17.1973 105.174 17.492C104.845 17.7693 104.68 18.1767 104.68 18.714C104.68 19.3033 104.957 19.7627 105.512 20.092C106.067 20.4213 106.933 20.7767 108.112 21.158C109.291 21.5567 110.244 21.938 110.972 22.302C111.717 22.666 112.359 23.1947 112.896 23.888C113.433 24.5813 113.702 25.474 113.702 26.566C113.702 27.606 113.433 28.5507 112.896 29.4C112.376 30.2493 111.613 30.9253 110.608 31.428C109.603 31.9307 108.415 32.182 107.046 32.182ZM134.922 19.312C134.922 20.2307 134.705 21.0973 134.272 21.912C133.839 22.7267 133.145 23.394 132.192 23.914C131.239 24.4167 130.017 24.668 128.526 24.668H125.25V32H122.286V13.93H128.526C129.913 13.93 131.083 14.1727 132.036 14.658C133.007 15.126 133.726 15.7673 134.194 16.582C134.679 17.3967 134.922 18.3067 134.922 19.312ZM128.526 22.25C129.653 22.25 130.493 21.9987 131.048 21.496C131.603 20.976 131.88 20.248 131.88 19.312C131.88 17.336 130.762 16.348 128.526 16.348H125.25V22.25H128.526ZM145.991 32.182C144.309 32.182 142.758 31.792 141.337 31.012C139.933 30.2147 138.815 29.114 137.983 27.71C137.168 26.2887 136.761 24.694 136.761 22.926C136.761 21.158 137.168 19.572 137.983 18.168C138.815 16.764 139.933 15.672 141.337 14.892C142.758 14.0947 144.309 13.696 145.991 13.696C147.689 13.696 149.241 14.0947 150.645 14.892C152.066 15.672 153.184 16.764 153.999 18.168C154.813 19.572 155.221 21.158 155.221 22.926C155.221 24.694 154.813 26.2887 153.999 27.71C153.184 29.114 152.066 30.2147 150.645 31.012C149.241 31.792 147.689 32.182 145.991 32.182ZM145.991 29.608C147.187 29.608 148.253 29.3393 149.189 28.802C150.125 28.2473 150.853 27.4673 151.373 26.462C151.91 25.4393 152.179 24.2607 152.179 22.926C152.179 21.5913 151.91 20.4213 151.373 19.416C150.853 18.4107 150.125 17.6393 149.189 17.102C148.253 16.5647 147.187 16.296 145.991 16.296C144.795 16.296 143.729 16.5647 142.793 17.102C141.857 17.6393 141.12 18.4107 140.583 19.416C140.063 20.4213 139.803 21.5913 139.803 22.926C139.803 24.2607 140.063 25.4393 140.583 26.462C141.12 27.4673 141.857 28.2473 142.793 28.802C143.729 29.3393 144.795 29.608 145.991 29.608ZM161.102 29.608H167.212V32H158.138V13.93H161.102V29.608ZM172.654 13.93V32H169.69V13.93H172.654ZM186.4 13.93V26.956C186.4 28.568 185.906 29.842 184.918 30.778C183.947 31.714 182.664 32.182 181.07 32.182C179.475 32.182 178.184 31.714 177.196 30.778C176.225 29.842 175.74 28.568 175.74 26.956H178.73C178.747 27.7533 178.946 28.386 179.328 28.854C179.726 29.322 180.307 29.556 181.07 29.556C181.832 29.556 182.413 29.322 182.812 28.854C183.21 28.3687 183.41 27.736 183.41 26.956V13.93H186.4ZM194.185 16.322V21.626H200.425V24.044H194.185V29.582H201.205V32H191.221V13.904H201.205V16.322H194.185Z" fill="#5F7C5D"/>
</svg>
